<svg id="Capa_1" data-name="Capa 1" xmlns="http://www.w3.org/2000/svg" viewBox="0 0 31.5 12.19"><defs><style>.cls-1{font-size:11.23px;font-family:Ubuntu-Bold, Ubuntu;font-weight:700;}.cls-1,.cls-3{fill:#fff;}.cls-2{fill:#e6bd9c;}.cls-4{fill:#90b654;}.cls-5{fill:#c7595e;}.cls-6{fill:#040006;}</style></defs><title>logo</title><text class="cls-1" transform="translate(11.76 9.71) scale(0.97 1)">SSP</text><path class="cls-2" d="M2.06,11.61h0a3.62,3.62,0,0,1,1.56-.93l.13,0A4.19,4.19,0,0,0,5,9.93l0,0a.54.54,0,0,0,0-.7.51.51,0,0,0-.73-.08s-1.52,1.25-2.53.22A.94.94,0,0,1,1.81,8a.82.82,0,0,1,.64-.26A.51.51,0,0,0,3,7.26a.52.52,0,0,0-.49-.55,1.85,1.85,0,0,0-1.42.56,2,2,0,0,0-.45,2A.72.72,0,0,1,.47,10h0" transform="translate(-0.25 -0.27)"/><path class="cls-2" d="M11.27,2.14h0a3.76,3.76,0,0,0-.91,1.6.74.74,0,0,1,0,.14,4.46,4.46,0,0,1-.68,1.3.08.08,0,0,1,0,0,.5.5,0,0,1-.68,0,.53.53,0,0,1-.08-.74s1.22-1.58.21-2.61a.87.87,0,0,0-1.52.63.51.51,0,1,1-1,0,1.94,1.94,0,0,1,.54-1.46A1.87,1.87,0,0,1,9,.67.69.69,0,0,0,9.72.5h0" transform="translate(-0.25 -0.27)"/><path class="cls-3" d="M3.54,6.41a.11.11,0,0,0,0-.19.47.47,0,0,1-.2-.12h0a.47.47,0,0,1,0-.66h0a.45.45,0,0,1,.64,0h0a.45.45,0,0,1,.12.21.11.11,0,0,0,.18,0h0l.48-.49A.22.22,0,0,1,5,5.2l.47.49a.11.11,0,0,1,0,.19A.58.58,0,0,0,5.29,6h0a.47.47,0,0,0,0,.66h0a.45.45,0,0,0,.64,0h0A.54.54,0,0,0,6,6.47a.12.12,0,0,1,.19,0l.47.49a.24.24,0,0,1,0,.33l-.48.5a.11.11,0,0,0,0,.19.45.45,0,0,1,.21.12h0a.47.47,0,0,1,0,.66h0a.45.45,0,0,1-.64,0h0a.45.45,0,0,1-.12-.21.12.12,0,0,0-.19-.05L5,9a.22.22,0,0,1-.32,0l-.49-.5a.11.11,0,0,0-.18.05.45.45,0,0,1-.12.21h0a.45.45,0,0,1-.64,0h0a.47.47,0,0,1,0-.66h0a.47.47,0,0,1,.2-.12.11.11,0,0,0,0-.19l-.48-.5a.24.24,0,0,1,0-.33l.47-.49Z" transform="translate(-0.25 -0.27)"/><path class="cls-3" d="M6.22,6.41l.48.5a.22.22,0,0,0,.32,0l.49-.5a.12.12,0,0,0,0-.19.47.47,0,0,1-.2-.12h0a.49.49,0,0,1,0-.66h0a.45.45,0,0,1,.64,0h0A.43.43,0,0,1,8,5.65a.12.12,0,0,0,.19,0l.48-.5a.24.24,0,0,0,0-.33l-.47-.49a.11.11,0,0,1,0-.19.34.34,0,0,0,.18-.11h0a.47.47,0,0,0,0-.66h0a.45.45,0,0,0-.64,0h0a.52.52,0,0,0-.11.19.11.11,0,0,1-.18,0L7,3.16a.22.22,0,0,0-.32,0l-.47.49h0A.12.12,0,0,1,6,3.61a.45.45,0,0,0-.12-.21h0a.45.45,0,0,0-.64,0h0a.47.47,0,0,0,0,.66h0a.45.45,0,0,0,.21.12.11.11,0,0,1,0,.19h0L5,4.87A.24.24,0,0,0,5,5.2l.49.5" transform="translate(-0.25 -0.27)"/><path class="cls-4" d="M3.54,6.41a.11.11,0,0,0,0-.19.47.47,0,0,1-.2-.12h0a.47.47,0,0,1,0-.66h0a.45.45,0,0,1,.64,0h0a.45.45,0,0,1,.12.21.11.11,0,0,0,.18,0h0l.48-.49A.22.22,0,0,1,5,5.2l.47.49a.11.11,0,0,1,0,.19A.58.58,0,0,0,5.29,6h0a.47.47,0,0,0,0,.66h0a.45.45,0,0,0,.64,0h0A.54.54,0,0,0,6,6.47a.12.12,0,0,1,.19,0l.47.49a.24.24,0,0,1,0,.33l-.48.5a.11.11,0,0,0,0,.19.45.45,0,0,1,.21.12h0a.47.47,0,0,1,0,.66h0a.45.45,0,0,1-.64,0h0a.45.45,0,0,1-.12-.21.12.12,0,0,0-.19-.05L5,9a.22.22,0,0,1-.32,0l-.49-.5a.11.11,0,0,0-.18.05.45.45,0,0,1-.12.21h0a.45.45,0,0,1-.64,0h0a.47.47,0,0,1,0-.66h0a.47.47,0,0,1,.2-.12.11.11,0,0,0,0-.19l-.48-.5a.24.24,0,0,1,0-.33l.47-.49Z" transform="translate(-0.25 -0.27)"/><path class="cls-5" d="M8.68,4.87l-.47-.49a.11.11,0,0,1,0-.19.34.34,0,0,0,.18-.11h0a.47.47,0,0,0,0-.66h0a.45.45,0,0,0-.64,0h0a.52.52,0,0,0-.11.19.11.11,0,0,1-.18,0L7,3.16a.22.22,0,0,0-.32,0l-.47.49h0A.12.12,0,0,1,6,3.61a.45.45,0,0,0-.12-.21h0a.45.45,0,0,0-.64,0h0a.47.47,0,0,0,0,.66h0a.45.45,0,0,0,.21.12.11.11,0,0,1,0,.19h0L5,4.87A.24.24,0,0,0,5,5.2l.47.49a.11.11,0,0,1,0,.19A.58.58,0,0,0,5.29,6h0a.47.47,0,0,0,0,.66h0a.45.45,0,0,0,.64,0h0A.54.54,0,0,0,6,6.47l.13-.11,0,0,.48.5a.22.22,0,0,0,.32,0l.49-.5a.12.12,0,0,0,0-.19.47.47,0,0,1-.2-.12h0a.49.49,0,0,1,0-.66h0a.45.45,0,0,1,.64,0h0A.43.43,0,0,1,8,5.65a.12.12,0,0,0,.19,0l.48-.5A.24.24,0,0,0,8.68,4.87Z" transform="translate(-0.25 -0.27)"/><path class="cls-6" d="M11.43,2a.21.21,0,0,0-.31,0,4,4,0,0,0-1,1.7.93.93,0,0,1,0,.13A4.07,4.07,0,0,1,9.47,5l0,0A.3.3,0,0,1,9,4.91H9A.32.32,0,0,1,9,4.66a3.59,3.59,0,0,0,.53-1,1.79,1.79,0,0,0-.33-1.92,1.13,1.13,0,0,0-.79-.35,1,1,0,0,0-.8.32,1.13,1.13,0,0,0-.31.83A.3.3,0,0,1,7,2.87a.3.3,0,0,1-.3-.29,1.68,1.68,0,0,1,.48-1.29A1.65,1.65,0,0,1,8.94.88.89.89,0,0,0,9.88.66a.24.24,0,0,0,0-.32.22.22,0,0,0-.32,0,.45.45,0,0,1-.48.11A2.07,2.07,0,0,0,6.9,1,2.16,2.16,0,0,0,6.29,2.6a.71.71,0,0,0,.19.47l-.3.31a1.34,1.34,0,0,0-.11-.14h0a.66.66,0,0,0-.95,0,.69.69,0,0,0,0,1h0l.14.11-.37.38a.45.45,0,0,0-.12.21A.45.45,0,0,0,4.56,5l-.37.38a.71.71,0,0,0-.1-.14h0a.66.66,0,0,0-1,0,.71.71,0,0,0,0,1h0a.69.69,0,0,0,.13.11L3,6.68a.7.7,0,0,0-.46-.2,2.16,2.16,0,0,0-1.59.63,2.25,2.25,0,0,0-.5,2.24.48.48,0,0,1-.11.5.24.24,0,0,0,0,.32.21.21,0,0,0,.31,0,.94.94,0,0,0,.22-1,1.79,1.79,0,0,1,.39-1.78,1.66,1.66,0,0,1,1.26-.5.3.3,0,0,1,.28.32.29.29,0,0,1-.31.29,1.07,1.07,0,0,0-.81.32,1.18,1.18,0,0,0,0,1.63A1.54,1.54,0,0,0,2.8,10a3.12,3.12,0,0,0,1.71-.68.29.29,0,0,1,.42,0,.32.32,0,0,1,0,.4l0,0a4.32,4.32,0,0,1-1.2.66l-.12,0a3.87,3.87,0,0,0-1.65,1,.22.22,0,0,0,0,.32.19.19,0,0,0,.15.07.21.21,0,0,0,.16-.07,3.36,3.36,0,0,1,1.46-.88l.14,0a4.59,4.59,0,0,0,1.34-.74l.06-.06a.77.77,0,0,0,0-1h0l.31-.31a.45.45,0,0,0,.1.14h0a.67.67,0,0,0,1,0,.71.71,0,0,0,0-1h0a.69.69,0,0,0-.13-.11l.37-.38A.43.43,0,0,0,7,7.19a.45.45,0,0,0,.21-.12l.48-.5a.33.33,0,0,0,.09-.33A.35.35,0,0,0,7.52,6a.24.24,0,0,1-.11-.06h0a.25.25,0,0,1,0-.34.22.22,0,0,1,.33,0h0a.24.24,0,0,1,.06.11A.34.34,0,0,0,8,6a.33.33,0,0,0,.31-.09l.42-.43h0a.67.67,0,0,0,.46.17.7.7,0,0,0,.52-.22l.05-.06A4.6,4.6,0,0,0,10.53,4a.83.83,0,0,0,0-.15,3.62,3.62,0,0,1,.86-1.5A.24.24,0,0,0,11.43,2Zm-3.68.55A.65.65,0,0,1,7.93,2a.6.6,0,0,1,.47-.19.7.7,0,0,1,.5.22c.86.88-.22,2.29-.23,2.3l-.06.1-.14-.14a.31.31,0,0,0,.11-.09h0a.71.71,0,0,0,0-1,.67.67,0,0,0-.48-.2.63.63,0,0,0-.47.2h0l-.09.12-.15-.16A.77.77,0,0,0,7.75,2.53ZM2,9.17a.73.73,0,0,1,0-1A.63.63,0,0,1,2.44,8a.72.72,0,0,0,.67-.38l.16.17-.14.11h0a.7.7,0,0,0-.2.49.68.68,0,0,0,.2.49.66.66,0,0,0,1,0h0a.71.71,0,0,0,.1-.14l.14.14-.09.07S2.86,10.05,2,9.17ZM6.55,7.08l-.49.5A.35.35,0,0,0,6,7.91a.33.33,0,0,0,.23.24.21.21,0,0,1,.1.06h0a.23.23,0,0,1,0,.34.22.22,0,0,1-.33,0H6a.24.24,0,0,1-.06-.11.35.35,0,0,0-.23-.24.34.34,0,0,0-.32.09l-.48.5h0l-.48-.5a.35.35,0,0,0-.24-.1H4.07a.33.33,0,0,0-.23.24.41.41,0,0,1-.07.11h0a.22.22,0,0,1-.33,0,.24.24,0,0,1-.07-.17.28.28,0,0,1,.07-.17h0a.17.17,0,0,1,.1-.06.33.33,0,0,0,.23-.24.36.36,0,0,0-.08-.33l-.49-.5h0l.49-.5h0a.35.35,0,0,0,.08-.33A.35.35,0,0,0,3.55,6a.21.21,0,0,1-.1-.06h0a.27.27,0,0,1-.06-.17.22.22,0,0,1,.23-.24.2.2,0,0,1,.16.07h0a.24.24,0,0,1,.06.11.32.32,0,0,0,.55.15l.48-.5h0l.37.38a.31.31,0,0,0-.11.09h0a.69.69,0,0,0,0,1A.63.63,0,0,0,5.6,7a.67.67,0,0,0,.48-.2h0l.09-.12.37.38ZM8.16,5.42a.76.76,0,0,0-.11-.14H8a.66.66,0,0,0-.95,0,.71.71,0,0,0,0,1h0l.14.11-.37.38h0l-.48-.49a.32.32,0,0,0-.54.13.33.33,0,0,1-.06.1h0a.24.24,0,0,1-.33,0,.25.25,0,0,1,0-.34h0a.24.24,0,0,1,.09-.06.35.35,0,0,0,.22-.24.36.36,0,0,0-.09-.32L5.2,5h0l.48-.5a.36.36,0,0,0,.09-.33A.34.34,0,0,0,5.53,4a.21.21,0,0,1-.1-.06h0a.25.25,0,0,1,0-.34.24.24,0,0,1,.33,0h0a.24.24,0,0,1,.06.11.33.33,0,0,0,.23.24.32.32,0,0,0,.32-.09l.49-.5h0l.47.49a.33.33,0,0,0,.31.09.35.35,0,0,0,.24-.22.31.31,0,0,1,.05-.1H8a.2.2,0,0,1,.16-.07.23.23,0,0,1,.17.07.27.27,0,0,1,0,.34h0A.15.15,0,0,1,8.18,4,.32.32,0,0,0,8,4.22a.33.33,0,0,0,.08.32L8.53,5h0Z" transform="translate(-0.25 -0.27)"/><path class="cls-6" d="M2.74,3.16a.23.23,0,0,0,.16.06.22.22,0,0,0,.15-.06.22.22,0,0,0,0-.32L2.23,2a.21.21,0,0,0-.31,0,.23.23,0,0,0,0,.31Z" transform="translate(-0.25 -0.27)"/><path class="cls-6" d="M3.45,3.79a.18.18,0,0,0,.15-.07.24.24,0,0,0,.07-.16.23.23,0,0,0-.07-.15.18.18,0,0,0-.15-.07.2.2,0,0,0-.16.07.22.22,0,0,0-.06.15.23.23,0,0,0,.06.16A.2.2,0,0,0,3.45,3.79Z" transform="translate(-0.25 -0.27)"/><path class="cls-6" d="M1.68,4.45h.66a.22.22,0,0,0,.22-.23A.22.22,0,0,0,2.34,4H1.68a.22.22,0,0,0-.22.22A.22.22,0,0,0,1.68,4.45Z" transform="translate(-0.25 -0.27)"/><path class="cls-6" d="M4.09,2.69h0a.22.22,0,0,0,.22-.23V1.74a.22.22,0,0,0-.22-.22h0a.22.22,0,0,0-.22.22v.72A.22.22,0,0,0,4.09,2.69Z" transform="translate(-0.25 -0.27)"/><path class="cls-6" d="M9,9a.23.23,0,0,0-.31,0,.22.22,0,0,0,0,.32l.82.85a.22.22,0,0,0,.15.06.23.23,0,0,0,.16-.06.24.24,0,0,0,0-.32Z" transform="translate(-0.25 -0.27)"/><path class="cls-6" d="M8.26,8.29a.23.23,0,0,0-.15.07.23.23,0,0,0-.06.16.25.25,0,0,0,.06.16.22.22,0,0,0,.15.06.23.23,0,0,0,.16-.06.25.25,0,0,0,.06-.16.23.23,0,0,0-.06-.16A.24.24,0,0,0,8.26,8.29Z" transform="translate(-0.25 -0.27)"/><path class="cls-6" d="M10.06,7.66H9.41a.22.22,0,0,0-.22.23.22.22,0,0,0,.22.22h.65a.22.22,0,0,0,.22-.22A.22.22,0,0,0,10.06,7.66Z" transform="translate(-0.25 -0.27)"/><path class="cls-6" d="M7.65,9.42h0a.22.22,0,0,0-.22.23v.72a.22.22,0,0,0,.22.22h0a.22.22,0,0,0,.22-.22V9.65A.22.22,0,0,0,7.65,9.42Z" transform="translate(-0.25 -0.27)"/></svg>